<svg width="120" height="120" viewBox="0 0 120 120" fill="none" xmlns="http://www.w3.org/2000/svg"><g clip-path="url(#a)" fill="#F1F1F2"><path fill-rule="evenodd" clip-rule="evenodd" d="M60 120c33.137 0 60-26.863 60-60S93.137 0 60 0 0 26.863 0 60s26.863 60 60 60zM45.947 51.76s2.31-6.5 15.152-6.316c12.842.183 14.322 6.737 14.322 6.737s.836 2.526-3.585 7.157c-2.556 2.678-5.78 4.095-6.82 4.505a.527.527 0 0 0-.35.489c.01 1.096.354 4.478 4.012 7.323 5.152 3.74 12.422 1.725 15.778-3.685a20.888 20.888 0 0 0 3.17-11.158c0-12.21-5.625-18.656-9.895-21.895-5.275-4-12.632-4.631-17.474-4.631-4.842 0-12.199.631-17.474 4.631-4.27 3.239-9.894 9.685-9.894 21.895 0 9.558 6.062 15.246 8.696 17.266a3.44 3.44 0 0 0 2.65.68c1.82-.29 5.056-1.113 8.022-3.42 3.621-2.816 4.284-6.23 4.406-7.385a.536.536 0 0 0-.352-.547c-1.08-.43-4.255-1.845-6.779-4.489-4.42-4.631-3.585-7.157-3.585-7.157zm2.087 30.491 11.501-6.9a3.04 3.04 0 0 1 3.128 0l11.501 6.9a.56.56 0 0 1 .249.692c-.644 1.565-3.507 6.711-13.314 6.711s-12.67-5.146-13.314-6.711a.56.56 0 0 1 .249-.692z"/><path d="m0 65.059 42.65 36.144 54.94-7.229L120 52.77l10.843 70.121L0 133.01V65.059z"/><path d="M109.324 74.923 77.482 28.971l-54.939-7.237L0 80.964l-2.093-95.767L168.433-1.446l-59.109 76.369z"/></g><defs><clipPath id="a"><path fill="#fff" d="M0 0h120v120H0z"/></clipPath></defs></svg>