<svg width="120" height="120" viewBox="0 0 120 120" fill="none" xmlns="http://www.w3.org/2000/svg">
<g clip-path="url(#clip0_405_284)">
<path fill-rule="evenodd" clip-rule="evenodd" d="M60 120C93.1371 120 120 93.1371 120 60C120 26.8629 93.1371 0 60 0C26.8629 0 0 26.8629 0 60C0 93.1371 26.8629 120 60 120ZM45.947 51.7596C45.947 51.7596 48.2568 45.2603 61.0989 45.4438C73.941 45.6272 75.4208 52.1807 75.4208 52.1807C75.4208 52.1807 76.2568 54.7069 71.8358 59.3384C69.2797 62.0163 66.0552 63.4329 65.0165 63.8427C64.8099 63.9242 64.6647 64.1097 64.6664 64.3318C64.6752 65.4277 65.0201 68.8098 68.678 71.6548C73.83 75.3949 81.0997 73.3797 84.4558 67.9698C86.2132 65.1369 87.6254 61.4252 87.6254 56.8121C87.6253 44.6016 82.0011 38.1556 77.7308 34.9174C72.4556 30.9174 65.0991 30.2858 60.257 30.2858C55.4149 30.2858 48.0583 30.9174 42.7832 34.9174C38.5129 38.1556 32.8887 44.6016 32.8886 56.8121C32.8884 66.3701 38.951 72.0581 41.5851 74.0784C42.3442 74.6607 43.2912 74.9102 44.2357 74.7588C46.0542 74.4671 49.2915 73.6449 52.2569 71.3384C55.8783 68.5218 56.5414 65.1088 56.6628 63.9534C56.6882 63.7116 56.5368 63.4956 56.3107 63.4056C55.2309 62.9757 52.0558 61.5612 49.5321 58.9174C45.1111 54.2859 45.947 51.7596 45.947 51.7596ZM48.0338 82.2513L59.535 75.3506C60.0074 75.0671 60.548 74.9174 61.0989 74.9174C61.6499 74.9174 62.1904 75.0671 62.6628 75.3506L74.1641 82.2513C74.4059 82.3964 74.5202 82.682 74.4129 82.9429C73.7689 84.5083 70.9063 89.6543 61.0989 89.6543C51.2916 89.6543 48.4289 84.5083 47.785 82.9429C47.6777 82.682 47.7919 82.3964 48.0338 82.2513Z" fill="#F1F1F2"/>
<path d="M0 65.0587L42.6506 101.203L97.5904 93.9743L120 52.7695L130.843 122.89L0 133.01V65.0587Z" fill="#F1F1F2"/>
<path d="M109.324 74.923L77.482 28.9711L22.5433 21.7343L0.000408762 80.9648L-2.09273 -14.8026L168.433 -1.44586L109.324 74.923Z" fill="#F1F1F2"/>
</g>
<defs>
<clipPath id="clip0_405_284">
<rect width="120" height="120" fill="white"/>
</clipPath>
</defs>
</svg>
